<svg width="60" height="60" viewBox="0 0 60 60" fill="none" xmlns="http://www.w3.org/2000/svg">
<path d="M35.7422 30C35.7422 33.1714 33.1714 35.7422 30 35.7422C26.8286 35.7422 24.2578 33.1714 24.2578 30C24.2578 26.8286 26.8286 24.2578 30 24.2578C33.1714 24.2578 35.7422 26.8286 35.7422 30Z" fill="white"/>
<path d="M43.4291 19.8408C43.153 19.0928 42.7127 18.4158 42.1405 17.86C41.5847 17.2878 40.9082 16.8475 40.1597 16.5714C39.5527 16.3357 38.6409 16.0551 36.9613 15.9786C35.1445 15.8958 34.5997 15.8779 30.0001 15.8779C25.4001 15.8779 24.8553 15.8953 23.0389 15.9782C21.3594 16.0551 20.4471 16.3357 19.8405 16.5714C19.0921 16.8475 18.415 17.2878 17.8598 17.86C17.2876 18.4158 16.8472 19.0923 16.5707 19.8408C16.335 20.4478 16.0544 21.3601 15.9779 23.0396C15.8951 24.856 15.8772 25.4008 15.8772 30.0009C15.8772 34.6005 15.8951 35.1452 15.9779 36.9621C16.0544 38.6416 16.335 39.5535 16.5707 40.1605C16.8472 40.9089 17.2871 41.5855 17.8593 42.1412C18.415 42.7134 19.0916 43.1538 19.8401 43.4298C20.4471 43.666 21.3594 43.9466 23.0389 44.0231C24.8553 44.1059 25.3996 44.1233 29.9997 44.1233C34.6002 44.1233 35.1449 44.1059 36.9609 44.0231C38.6404 43.9466 39.5527 43.666 40.1597 43.4298C41.6621 42.8503 42.8495 41.6628 43.4291 40.1605C43.6648 39.5535 43.9454 38.6416 44.0223 36.9621C44.1052 35.1452 44.1226 34.6005 44.1226 30.0009C44.1226 25.4008 44.1052 24.856 44.0223 23.0396C43.9459 21.3601 43.6653 20.4478 43.4291 19.8408V19.8408ZM30.0001 38.8462C25.1144 38.8462 21.1538 34.8861 21.1538 30.0004C21.1538 25.1147 25.1144 21.1546 30.0001 21.1546C34.8854 21.1546 38.8459 25.1147 38.8459 30.0004C38.8459 34.8861 34.8854 38.8462 30.0001 38.8462ZM39.1957 22.8721C38.054 22.8721 37.1284 21.9465 37.1284 20.8048C37.1284 19.6632 38.054 18.7376 39.1957 18.7376C40.3373 18.7376 41.2629 19.6632 41.2629 20.8048C41.2625 21.9465 40.3373 22.8721 39.1957 22.8721Z" fill="white"/>
<path d="M30 0C13.434 0 0 13.434 0 30C0 46.566 13.434 60 30 60C46.566 60 60 46.566 60 30C60 13.434 46.566 0 30 0ZM47.1227 37.1022C47.0393 38.936 46.7477 40.188 46.322 41.2839C45.4271 43.5979 43.5979 45.4271 41.2839 46.322C40.1884 46.7477 38.936 47.0389 37.1027 47.1227C35.2657 47.2064 34.6788 47.2266 30.0005 47.2266C25.3217 47.2266 24.7353 47.2064 22.8978 47.1227C21.0645 47.0389 19.812 46.7477 18.7166 46.322C17.5667 45.8894 16.5257 45.2115 15.6651 44.3349C14.789 43.4747 14.111 42.4333 13.6784 41.2839C13.2527 40.1884 12.9611 38.936 12.8778 37.1027C12.7931 35.2652 12.7734 34.6783 12.7734 30C12.7734 25.3217 12.7931 24.7348 12.8773 22.8978C12.9607 21.064 13.2518 19.812 13.6775 18.7161C14.1101 17.5667 14.7885 16.5253 15.6651 15.6651C16.5253 14.7885 17.5667 14.1106 18.7161 13.678C19.812 13.2523 21.064 12.9611 22.8978 12.8773C24.7348 12.7936 25.3217 12.7734 30 12.7734C34.6783 12.7734 35.2652 12.7936 37.1022 12.8778C38.936 12.9611 40.188 13.2523 41.2839 13.6775C42.4333 14.1101 43.4747 14.7885 44.3353 15.6651C45.2115 16.5257 45.8899 17.5667 46.322 18.7161C46.7482 19.812 47.0393 21.064 47.1231 22.8978C47.2069 24.7348 47.2266 25.3217 47.2266 30C47.2266 34.6783 47.2069 35.2652 47.1227 37.1022V37.1022Z" fill="white"/>
</svg>
