<svg width="60" height="60" viewBox="0 0 60 60" fill="none" xmlns="http://www.w3.org/2000/svg">
<path d="M30 60C46.5685 60 60 46.5685 60 30C60 13.4315 46.5685 0 30 0C13.4315 0 0 13.4315 0 30C0 46.5685 13.4315 60 30 60Z" fill="white"/>
<path d="M13.7274 29.3505L42.6524 18.198C43.9949 17.713 45.1674 18.5255 44.7324 20.5555L44.7349 20.553L39.8099 43.7555C39.4449 45.4005 38.4674 45.8005 37.0999 45.0255L29.5999 39.498L25.9824 42.983C25.5824 43.383 25.2449 43.7205 24.4699 43.7205L25.0024 36.088L38.9024 23.5305C39.5074 22.998 38.7674 22.698 37.9699 23.228L20.7924 34.043L13.3874 31.733C11.7799 31.223 11.7449 30.1255 13.7274 29.3505V29.3505Z" fill="black"/>
</svg>
