<svg width="60" height="60" viewBox="0 0 60 60" fill="none" xmlns="http://www.w3.org/2000/svg">
<path d="M30 60C46.5685 60 60 46.5685 60 30C60 13.4315 46.5685 0 30 0C13.4315 0 0 13.4315 0 30C0 46.5685 13.4315 60 30 60Z" fill="white"/>
<path fill-rule="evenodd" clip-rule="evenodd" d="M28.8669 43.1579H31.2215C31.2215 43.1579 31.9328 43.0798 32.2959 42.6884C32.6301 42.329 32.6194 41.6541 32.6194 41.6541C32.6194 41.6541 32.5734 38.4947 34.0398 38.0294C35.4853 37.5711 37.3415 41.083 39.309 42.4333C40.7967 43.4553 41.9272 43.2312 41.9272 43.2312L47.1879 43.1579C47.1879 43.1579 49.9398 42.9884 48.635 40.8247C48.528 40.6477 47.875 39.2241 44.7236 36.2989C41.4251 33.2373 41.8668 33.7325 45.8402 28.4365C48.2601 25.2113 49.2275 23.2422 48.9253 22.3989C48.6371 21.5957 46.8574 21.808 46.8574 21.808L40.9342 21.8449C40.9342 21.8449 40.4951 21.785 40.1694 21.9796C39.8512 22.1705 39.6464 22.6155 39.6464 22.6155C39.6464 22.6155 38.7089 25.1113 37.4586 27.2338C34.8211 31.7126 33.7665 31.949 33.3355 31.6709C32.3328 31.0227 32.5831 29.0671 32.5831 27.6777C32.5831 23.3374 33.2414 21.5277 31.3012 21.0593C30.6573 20.9037 30.1835 20.801 28.5369 20.7844C26.4235 20.7625 24.6346 20.7908 23.6218 21.2871C22.948 21.6171 22.4281 22.3524 22.7447 22.3946C23.1362 22.447 24.0229 22.6337 24.4929 23.2738C25.0999 24.0995 25.0785 25.9541 25.0785 25.9541C25.0785 25.9541 25.4272 31.0634 24.264 31.6982C23.4656 32.1335 22.3704 31.2447 20.019 27.1814C18.8141 25.1001 17.9045 22.7994 17.9045 22.7994C17.9045 22.7994 17.7291 22.3695 17.4162 22.1395C17.0365 21.8609 16.506 21.7721 16.506 21.7721L10.8775 21.809C10.8775 21.809 10.0325 21.8326 9.72235 22.2C9.4464 22.5267 9.70042 23.2027 9.70042 23.2027C9.70042 23.2027 14.107 33.5121 19.0965 38.7075C23.6715 43.4708 28.8669 43.1579 28.8669 43.1579Z" fill="black"/>
</svg>
